<svg id="ehaYGgvLAR21" xmlns="http://www.w3.org/2000/svg" xmlns:xlink="http://www.w3.org/1999/xlink" viewBox="0 0 300 300" shape-rendering="geometricPrecision" text-rendering="geometricPrecision"><path d="M-0.00002,150C-0.00002,67.15728,67.15727,-0.00002,150,-0.00002s150.00002,67.15729,150.00002,150.00002-67.15729,150.00002-150.00002,150.00002-150.00002-67.15729-150.00002-150.00002Z" fill="#20abf6" stroke-width="0"/><path d="M0,149.9217C0.00894,132.41812,3.01592,115.61566,8.53526,100h282.92947c5.51934,15.61566,8.52632,32.41812,8.53526,49.9217v.1566c-.00894,17.50358-3.01592,34.30604-8.53526,49.9217h-282.92947C3.01592,184.38434,0.00894,167.58188,0,150.0783v-.1566Z" fill="#1c94d4" stroke-width="0"/><path d="M291.46474,200c-20.58359,58.23634-76.10937,99.96665-141.38643,100h-.1566C84.64466,299.96665,29.11887,258.23635,8.53528,200h282.92946Z" fill="#177cb3" stroke-width="0"/><rect width="95.297391" height="92.56168" rx="0" ry="0" transform="translate(104.70261 150.00002)" fill="#177cb3" stroke-width="0"/><ellipse rx="34.370961" ry="34.370961" transform="translate(148.872544 46.303907)" fill="#fff" stroke-width="0"/><line x1="-63.136358" y1="0" x2="63.136359" y2="0" transform="matrix(.944605 0 0 1 148.046249 103.016287)" fill="none" stroke="#fff" stroke-width="6"/><polygon points="0,-34.556517 29.926821,17.278258 -29.926821,17.278258 0,-34.556517" transform="matrix(-1.912848 0 0-2.181063 149.908032 141.729875)" fill="#fff" stroke-width="0"/><path d="M60,150.00002v120c-36.43341-27.363684-60.00001-70.929954-60.00002-120h60.00002Z" fill="#1c94d4" stroke-width="0"/><path d="M239.99999,150h60c0,49.070044-23.566598,92.636323-60,120v-120Z" fill="#1c94d4" stroke-width="0"/><path d="M86,100h28v195.65214c-9.74278-2.39999-19.11088-5.752-28-9.95172L86,100Z" fill="#fff" stroke-width="0"/><path d="M186,100h28v185.70043c-8.88912,4.19971-18.25722,7.55172-28,9.95172L186,100Z" fill="#fff" stroke-width="0"/><path d="M135.97008,226.20008L88.13465,110.71514L114.00328,100l36.01303,86.94315-15.15349,36.58375l1.10726,2.67318Z" fill="#fff" stroke-width="0"/><path d="M138.1939,215.48494L186.02933,100l25.86863,10.71514L165.1698,223.5269l-15.15349-36.58376-11.8224,28.5418h-.00001Z" fill="#fff" stroke-width="0"/><rect width="32" height="32" rx="0" ry="0" transform="matrix(.947196 0 0 1.001181 134.844874 191.489108)" fill="#fff" stroke-width="0"/></svg>
